<?xml version="1.0" standalone="no"?>
<!DOCTYPE svg PUBLIC "-//W3C//DTD SVG 20010904//EN"
 "http://www.w3.org/TR/2001/REC-SVG-20010904/DTD/svg10.dtd">
<svg version="1.0" xmlns="http://www.w3.org/2000/svg"
 width="1280.000000pt" height="1258.000000pt" viewBox="0 0 1280.000000 1258.000000"
 preserveAspectRatio="xMidYMid meet">
<metadata>
Created by potrace 1.15, written by Peter Selinger 2001-2017
</metadata>
<g transform="translate(0.000000,1258.000000) scale(0.100000,-0.100000)"
fill="#000000" stroke="none">
<path d="M5556 10578 c2 -18 15 -139 29 -268 14 -129 32 -297 40 -374 9 -76
15 -147 13 -158 -3 -17 -188 243 -485 680 -17 26 -28 6 -14 -25 28 -60 124
-378 170 -563 98 -385 131 -691 97 -895 -8 -44 -13 -80 -12 -81 0 -1 35 -16
76 -35 214 -96 439 -275 608 -483 31 -37 58 -64 59 -59 3 9 -34 116 -132 378
-31 83 -72 191 -90 240 -18 50 -42 115 -54 146 -22 57 -68 113 -102 124 -24 8
-49 55 -49 94 0 40 43 89 84 97 44 8 91 -17 112 -58 14 -27 15 -39 5 -78 -6
-25 -13 -55 -16 -68 -4 -24 20 -92 240 -682 26 -69 49 -133 52 -142 14 -46 20
-3 26 165 8 262 59 492 148 670 l30 58 -87 82 c-84 79 -152 158 -225 262 -141
200 -339 586 -471 914 -36 89 -61 117 -52 59z"/>
<path d="M7250 10373 c-210 -406 -387 -679 -584 -898 -58 -65 -181 -171 -230
-200 -16 -9 -15 -16 13 -85 34 -88 64 -202 82 -315 14 -93 17 -367 6 -472 -9
-81 2 -95 26 -35 9 20 50 111 92 202 42 91 117 254 166 363 l91 198 -7 74 c-8
87 5 117 58 140 68 28 137 -20 137 -97 0 -43 -25 -74 -91 -113 -37 -22 -65
-72 -173 -310 -32 -72 -71 -157 -87 -190 -15 -33 -57 -123 -92 -200 -36 -77
-63 -142 -61 -144 3 -3 46 37 96 88 201 203 403 337 627 416 l63 23 3 179 c2
203 20 315 86 553 62 223 181 557 272 763 46 102 31 87 -198 -198 -262 -326
-326 -405 -334 -409 -4 -3 -6 5 -4 17 2 12 22 121 44 242 71 387 108 599 105
603 -2 2 -50 -86 -106 -195z"/>
<path d="M3831 9238 c0 -7 69 -67 152 -133 276 -219 508 -407 504 -411 -3 -4
-216 31 -245 40 -9 3 -109 22 -222 41 -209 37 -341 62 -372 71 -28 8 -21 -15
8 -26 43 -17 403 -209 509 -273 322 -192 559 -377 685 -533 32 -41 63 -81 68
-90 8 -15 16 -14 75 10 193 77 480 115 724 96 80 -6 148 -9 150 -6 3 3 -19 16
-48 29 -30 14 -139 64 -244 112 -530 244 -516 238 -565 229 -82 -13 -112 -8
-142 26 -40 44 -38 92 6 136 26 26 42 34 71 34 40 0 67 -23 117 -98 20 -31 44
-49 90 -70 35 -16 189 -87 343 -157 154 -70 304 -139 333 -153 28 -14 55 -22
59 -18 4 3 -22 35 -58 69 -207 204 -337 393 -419 609 l-38 102 -49 -4 c-225
-22 -515 28 -904 156 -144 47 -440 158 -551 208 -28 12 -38 13 -37 4z"/>
<path d="M8895 9033 c-129 -46 -458 -140 -617 -176 -174 -40 -382 -72 -533
-82 -87 -6 -255 5 -319 20 -18 5 -25 -4 -48 -63 -35 -86 -117 -224 -186 -310
-68 -86 -219 -240 -299 -304 -101 -80 -89 -83 72 -21 50 20 131 50 180 68 416
150 518 192 540 220 58 77 82 95 125 95 92 0 135 -106 70 -172 -33 -32 -36
-33 -161 -12 -33 5 -81 -6 -149 -35 -22 -9 -509 -190 -680 -252 l-65 -24 205
-7 c292 -9 478 -48 669 -140 79 -38 85 -39 94 -22 39 71 254 255 422 360 224
141 645 347 920 449 49 18 -29 13 -430 -30 -235 -25 -431 -45 -434 -45 -7 0
96 73 261 185 73 50 161 111 196 138 35 26 65 47 68 47 8 0 194 131 194 136 0
8 -26 2 -95 -23z"/>
<path d="M6251 8264 c-190 -51 -317 -201 -328 -388 -9 -134 24 -234 107 -329
55 -63 164 -122 252 -138 180 -32 375 66 458 232 128 253 -15 561 -290 623
-83 19 -128 19 -199 0z"/>
<path d="M4900 7844 c-32 -47 -174 -177 -270 -248 -180 -133 -519 -314 -840
-449 -102 -43 -196 -83 -210 -90 l-25 -11 24 -4 c12 -2 80 4 150 12 184 24
695 76 699 72 2 -2 -148 -108 -332 -236 -185 -127 -338 -236 -342 -241 -14
-23 11 -20 108 14 204 70 465 140 693 186 268 54 457 69 610 51 55 -7 108 -13
118 -14 15 -1 28 19 56 84 81 186 254 407 438 561 49 40 92 76 97 81 37 31
-39 7 -329 -103 -96 -37 -138 -53 -320 -119 -171 -62 -182 -67 -209 -103 -54
-74 -73 -87 -118 -87 -95 0 -139 110 -69 172 35 31 65 35 136 16 52 -14 69 -9
365 102 330 123 406 152 465 172 33 11 64 25 70 29 5 5 -57 9 -145 9 -217 0
-492 43 -605 94 -16 8 -59 26 -95 41 -36 15 -69 31 -74 36 -15 14 -19 11 -46
-27z"/>
<path d="M7740 7760 c-25 -16 -198 -70 -284 -88 -65 -14 -136 -17 -348 -17
-147 0 -264 -3 -260 -7 4 -4 111 -54 237 -111 127 -58 298 -136 380 -174 180
-84 193 -87 260 -72 65 14 101 0 129 -52 24 -44 16 -80 -24 -120 -53 -54 -128
-31 -170 52 -11 21 -32 46 -46 55 -24 16 -137 70 -294 139 -41 18 -118 53
-170 78 -229 107 -322 148 -328 143 -3 -3 42 -55 100 -115 196 -204 331 -414
393 -612 l17 -55 67 8 c126 17 319 -5 561 -63 123 -29 495 -144 515 -159 6 -4
28 -13 50 -20 22 -7 100 -37 173 -66 73 -30 137 -54 142 -54 24 0 5 28 -43 65
-40 31 -245 195 -507 408 -95 76 -95 76 22 51 40 -8 183 -35 318 -59 135 -24
291 -53 348 -63 56 -11 102 -17 102 -13 0 3 -53 33 -118 65 -137 70 -391 208
-442 240 -19 13 -80 51 -135 87 -99 63 -293 204 -349 253 -109 96 -217 215
-239 264 -11 23 -32 28 -57 12z"/>
<path d="M6019 7304 c-89 -90 -213 -193 -316 -262 -82 -55 -268 -146 -332
-163 l-51 -13 6 -101 c20 -311 -111 -806 -381 -1440 l-17 -40 20 20 c20 19
220 266 441 543 58 73 107 127 109 120 1 -7 -16 -112 -38 -233 -86 -466 -109
-599 -105 -604 7 -6 2 -16 110 194 145 281 288 514 448 729 73 99 253 280 323
327 l52 34 -30 75 c-84 210 -118 518 -88 784 6 49 8 91 5 94 -2 3 -17 -24 -33
-59 -16 -35 -43 -93 -59 -129 -17 -36 -78 -168 -136 -295 -57 -126 -115 -251
-127 -278 -20 -42 -22 -56 -15 -132 l7 -85 -30 -30 c-55 -54 -149 -35 -172 35
-6 18 -8 44 -5 57 8 30 51 78 69 78 8 0 27 12 43 28 27 25 69 111 238 482 31
69 79 174 107 233 28 59 49 110 46 112 -2 2 -42 -34 -89 -81z"/>
<path d="M6570 7347 c0 -2 21 -59 46 -128 265 -718 254 -691 291 -717 90 -63
109 -102 79 -160 -20 -39 -44 -52 -96 -52 -33 0 -48 6 -72 30 -32 33 -31 25
-13 152 7 41 2 63 -35 165 -24 65 -49 132 -56 148 -7 17 -54 144 -106 284 -51
140 -98 256 -105 258 -9 3 -10 -13 -6 -64 7 -81 -12 -319 -33 -421 -26 -127
-64 -244 -109 -339 l-43 -92 38 -26 c41 -28 143 -132 200 -204 30 -37 77 -106
189 -279 48 -73 268 -520 326 -660 54 -134 69 -161 81 -149 4 4 -27 319 -70
702 -14 118 -13 144 4 115 8 -13 95 -140 220 -320 17 -25 73 -106 125 -180
110 -161 131 -187 139 -179 4 4 -2 31 -13 60 -39 106 -113 355 -156 528 -82
326 -111 551 -102 771 3 74 10 149 15 167 10 30 9 31 -36 48 -191 71 -430 251
-604 453 -67 77 -98 106 -98 89z"/>
<path d="M5788 4571 c-55 -18 -146 -92 -199 -162 -27 -35 -40 -65 -48 -111
-10 -57 -31 -333 -31 -415 l0 -33 -52 0 c-87 -1 -125 -15 -186 -67 -30 -27
-58 -55 -60 -61 -3 -9 35 -12 148 -12 128 0 151 -2 147 -14 -3 -8 -9 -179 -13
-380 l-7 -366 -166 0 c-188 0 -270 15 -311 56 -29 29 -30 51 -16 363 6 140 6
193 -2 190 -6 -2 -50 -33 -96 -69 -74 -57 -85 -69 -86 -96 0 -30 -1 -31 -87
-54 -203 -53 -429 -149 -489 -208 -36 -36 -54 -82 -54 -136 l0 -44 -67 -8
c-89 -9 -448 2 -494 15 -52 16 -100 51 -122 89 -23 40 -47 189 -47 297 0 179
38 452 95 694 14 57 24 106 22 107 -2 2 -43 -6 -91 -18 l-86 -23 -21 -55 c-11
-30 -23 -66 -26 -80 -4 -25 -15 -28 -266 -89 -625 -151 -955 -291 -1129 -479
-71 -78 -98 -133 -105 -221 -26 -309 193 -490 593 -491 371 0 712 159 845 395
l33 58 11 -49 c19 -78 38 -115 94 -176 104 -114 199 -138 536 -138 204 0 252
7 297 40 28 20 29 20 85 3 44 -13 94 -18 208 -18 177 0 193 5 248 85 l38 55
50 -47 c28 -26 81 -62 117 -80 l67 -33 180 0 c151 0 185 3 211 17 l32 17 -6
-421 -5 -422 79 62 c43 34 93 72 109 86 l30 24 -19 49 c-15 41 -19 97 -28 393
-8 295 -6 1107 4 1115 2 1 94 5 204 9 l202 7 -5 -318 c-5 -310 -5 -320 17
-376 27 -71 108 -162 180 -201 69 -38 178 -55 345 -55 180 -1 265 12 337 48
l57 29 63 -21 c52 -16 90 -20 213 -21 191 -1 212 5 261 84 l35 58 52 -50 c28
-26 80 -63 116 -81 64 -31 69 -32 221 -35 172 -4 222 4 270 44 29 25 32 25 68
11 65 -26 185 -40 304 -35 139 5 166 18 209 94 l31 55 51 -51 c27 -28 80 -65
116 -83 l66 -32 335 0 c184 0 349 3 365 7 l31 7 -4 -65 c-4 -63 -4 -64 21 -64
25 0 38 23 63 109 3 9 13 12 32 8 61 -12 559 -18 752 -9 221 11 258 19 335 72
92 64 125 154 86 242 -62 144 -234 228 -441 215 -204 -13 -504 -105 -654 -201
l-58 -37 6 38 c27 165 52 746 41 967 l-7 159 -98 -99 -98 -99 21 -90 c18 -81
20 -123 20 -435 1 -190 -3 -394 -7 -453 l-8 -108 -347 3 c-330 3 -348 4 -393
25 -25 11 -52 31 -58 44 -10 17 -11 85 -5 281 4 142 4 258 0 258 -4 0 -45 -30
-91 -67 -74 -59 -84 -70 -84 -99 0 -31 -1 -32 -72 -49 -201 -49 -445 -151
-511 -213 -29 -27 -57 -104 -57 -155 l0 -29 -172 4 c-150 3 -179 6 -220 25
-25 12 -52 31 -58 44 -10 17 -11 85 -5 281 4 142 4 258 0 258 -3 0 -44 -30
-91 -66 -75 -59 -84 -69 -84 -99 0 -33 -1 -33 -72 -50 -215 -52 -462 -158
-519 -222 -26 -31 -49 -87 -49 -125 0 -20 -93 -52 -204 -69 -133 -21 -340 2
-436 49 -61 30 -65 49 -64 312 0 129 4 278 8 332 l8 96 191 4 c170 3 197 6
237 24 53 25 116 87 105 104 -5 8 -74 10 -266 4 -219 -6 -259 -5 -259 7 0 8
10 56 22 108 l23 94 -75 69 c-41 38 -87 78 -102 89 l-28 20 0 -173 c0 -95 -3
-183 -6 -196 l-6 -22 -201 2 -201 3 3 115 c4 187 18 346 34 377 33 62 62 78
150 81 73 3 86 1 116 -20 23 -15 39 -38 49 -66 12 -36 16 -41 29 -31 26 22 55
90 56 133 4 87 -57 128 -193 133 -47 1 -97 -2 -112 -6z m-2483 -913 c-18 -213
-32 -288 -69 -363 -65 -132 -212 -258 -379 -325 -280 -112 -677 -117 -825 -10
-56 41 -76 81 -76 155 2 255 374 440 1209 604 159 31 148 36 140 -61z m1505
-542 l0 -134 -107 -7 c-173 -12 -337 7 -350 41 -8 21 22 50 95 91 94 53 312
142 350 143 9 0 12 -33 12 -134z m2733 2 l-2 -133 -73 -8 c-87 -10 -288 -2
-340 13 -79 23 -46 69 105 144 93 46 269 115 297 116 13 0 15 -20 13 -132z
m1270 0 l-2 -133 -58 -6 c-164 -19 -352 -3 -387 31 -19 18 -18 19 13 48 18 16
69 48 114 71 85 43 281 120 307 121 13 0 15 -20 13 -132z m1927 6 c96 -32 169
-80 197 -131 l23 -40 -77 -7 c-99 -8 -753 -6 -863 3 l-85 7 125 62 c284 139
483 170 680 106z"/>
<path d="M7117 3666 l-59 -52 60 -52 60 -52 61 50 60 51 -42 37 c-91 79 -75
77 -140 18z"/>
<path d="M7383 3661 l-52 -48 32 -29 c18 -16 44 -40 59 -53 l27 -23 60 52 60
52 -59 49 c-33 27 -63 49 -67 49 -4 -1 -31 -23 -60 -49z"/>
<path d="M10268 3613 c-29 -27 -53 -53 -54 -58 0 -11 98 -95 112 -95 5 0 33
22 63 48 l53 48 -60 52 -61 53 -53 -48z"/>
</g>
</svg>
